<svg width="773" height="600" viewBox="0 0 773 600" fill="none" xmlns="http://www.w3.org/2000/svg">
<g clip-path="url(#clip0_217_219)">
<path d="M786.5 407.5C449.5 340.5 321.5 330.5 -13.5 407.5V612L786.5 620.5V407.5Z" fill="#5C3824" stroke="black"/>
</g>
<rect x="49" y="90" width="676" height="388" fill="#D9D9D9"/>
<rect x="237" y="74" width="300" height="33" fill="#808080"/>
<rect x="117" y="471" width="540" height="16" fill="#808080"/>
<rect x="373" y="487" width="27" height="113" fill="#464646"/>
<line x1="99" y1="410.5" x2="675" y2="410.5" stroke="#FF4646"/>
<line x1="99" y1="378.5" x2="675" y2="378.5" stroke="#FF4646"/>
<line x1="98.9991" y1="346.5" x2="674.999" y2="345.5" stroke="#FF4646"/>
<line x1="99" y1="313.5" x2="675" y2="313.5" stroke="#FF4646"/>
<line x1="98.9991" y1="281.5" x2="674.999" y2="280.5" stroke="#FF4646"/>
<line x1="99" y1="248.5" x2="675" y2="248.5" stroke="#FF4646"/>
<line x1="99" y1="216.5" x2="675" y2="216.5" stroke="#FF4646"/>
<line x1="99" y1="184.5" x2="675" y2="184.5" stroke="#FF4646"/>
<line x1="99" y1="152.5" x2="675" y2="152.5" stroke="#FF4646"/>
<line x1="99" y1="393.5" x2="675" y2="393.5" stroke="#A2A2A2"/>
<line x1="99" y1="361.5" x2="675" y2="361.5" stroke="#A2A2A2"/>
<line x1="99" y1="329.5" x2="675" y2="329.5" stroke="#A2A2A2"/>
<line x1="99" y1="297.5" x2="675" y2="297.5" stroke="black"/>
<line x1="98.9991" y1="265.5" x2="674.999" y2="264.5" stroke="black"/>
<line x1="99" y1="232.5" x2="675" y2="232.5" stroke="black"/>
<line x1="99" y1="200.5" x2="675" y2="200.5" stroke="black"/>
<line x1="98.9991" y1="168.5" x2="674.999" y2="167.5" stroke="black"/>
<defs>
<clipPath id="clip0_217_219">
<rect width="773" height="600" fill="white"/>
</clipPath>
</defs>
</svg>
